<?xml version="1.0" encoding="utf-8"?>
<!-- Generator: Adobe Illustrator 23.0.3, SVG Export Plug-In . SVG Version: 6.00 Build 0)  -->
<svg version="1.1" id="Calque_1" xmlns="http://www.w3.org/2000/svg" xmlns:xlink="http://www.w3.org/1999/xlink" x="0px" y="0px"
	 viewBox="0 0 408.4 377.63" style="enable-background:new 0 0 408.4 377.63;" xml:space="preserve">
<style type="text/css">
	.st0{clip-path:url(#SVGID_2_);fill:#020203;}
</style>
<g>
	<defs>
		<rect id="SVGID_1_" width="408.4" height="377.63"/>
	</defs>
	<clipPath id="SVGID_2_">
		<use xlink:href="#SVGID_1_"  style="overflow:visible;"/>
	</clipPath>
	<path class="st0" d="M89.79,176.57c0,1.57,0.14,2.58,0.43,3.44c0.14-1,0.14-2.01,0-2.72C90.08,176.85,90.08,176.71,89.79,176.57"/>
	<path class="st0" d="M83.77,186.74c1.86-7.02,3.72-10.45,5.58-10.45c0.14,0,0.29,0,0.43,0.29c-0.14-1.01-0.14-2.01-0.14-3.3
		c0-2.29,0.43-3.44,1.15-3.44c3.15,0,7.73,3.44,14.18,10.03c5.44,5.73,9.31,10.6,11.6,14.46v58.14c2.44,1.29,3.58,3.58,3.3,7.02
		c-2.15,2.72-3.3,4.58-3.3,5.87c0,1,0.43,2.58,1.15,4.87c0.86,2.15,1.29,3.87,1.29,5.16c0,1.43-0.72,3-2,4.87
		c-6.02,0.14-12.03,0.29-18.19,0.43h-1c-5.73-3.15-10.45-6.16-14.03-9.16c-0.86-8.45-1.29-14.75-1.29-19.33
		c0.29-0.72,0.43-7.59,0.43-20.48c0-1,0.86-3,2.72-5.87c0.14-3.15-0.14-5.58-1-7.01c-2.01-8.74-3.01-15.04-3.01-18.91
		C81.63,196.62,82.34,192.18,83.77,186.74 M157.81,196.04c6.3-15.04,10.74-22.48,13.17-22.48c1,0,6.73,4.01,17.18,11.88
		c1.43,1.01,2.44,5.01,3.01,12.03c0.72,5.87,0.86,10.45,0.72,13.75c-0.57,6.87-1,11.03-1.29,12.17c0,0.72,0.43,3.15,1.29,7.73
		c0.14,2.15,0.14,4.3,0,6.44c-0.28,2-1.29,3.58-3.15,4.87c4.15,4.72,5.3,14.32,3.72,29.07c-0.57,5.01-1.72,8.88-3.44,11.32
		c-3.29-0.14-6.3-0.43-9.16-0.86c-0.14-0.72-1-1.29-2.86-1.72c-1.86-0.43-2.86-0.86-3.15-1.57c-4.15-2.86-7.87-7.02-11.17-12.46
		c-3.15-5.44-4.87-10.6-4.87-15.61V196.04z M311.18,261.2c2-3.44,3.15-9.45,3.29-18.04c0.29-13.6,0.57-22.05,1-25.06
		c1.15-10.74,2.01-18.04,2.44-21.77c1-7.73,2.86-12.17,5.44-13.17c3.29,1,5.73,2.15,7.45,3.44c2.58,2.01,8.3,7.59,17.04,16.75
		c0,1.43,0.43,3.58,1.29,6.16c0.86,2.72,1.29,4.72,1.29,6.16c0,0.43-0.43,1-1.01,1.86c-1.57,2.15-2.58,5.01-3,8.16
		c-0.29,1.86-0.14,6.16,0.28,12.6c0.14,2.86,0.14,6.73-0.28,11.6c-0.43,6.01-0.72,10.02-0.72,12.03c0,1.15,0.57,3.87,1.57,8.16
		c1.01,4.29,1.43,6.87,1.29,7.73c-3.15,3.58-6.3,5.3-9.88,4.87s-5.73-0.72-6.44-0.86c-0.14-0.28-2-0.28-5.44,0
		c-2.01,0-3.87-1.15-5.59-3.15c-0.71-1-2.86-2.44-6.16-4.44c-3.44-1.86-5.44-3.44-6.02-4.73L311.18,261.2z M385.51,245.02
		c-2-18.76-2-34.51,0-47.4c2.72-16.75,5.01-26.2,6.73-28.5c-0.71-0.43-1.86-0.86-3.29-1.15c-4.87-1.29-8.45-2.58-10.45-4.01
		c-8.16-5.58-14.75-10.02-19.9-13.46c-12.6,15.04-24.2,22.62-34.8,22.62c-2.86,0-5.3-0.86-7.45-2.43c-2.44-2.44-4.3-4.44-5.44-5.87
		c-3.44-0.14-9.74-2.58-18.76-7.31c-2.01-1-6.44-4.15-13.46-9.16c-5.01-3.72-8.45-5.58-10.03-5.58c-3.44,5.16-5.58,8.16-6.44,9.16
		l-3.44,6.16c-7.02,8.16-10.6,15.47-10.6,21.77l-2.44,1.86c-1.86,1.43-2.58,2.43-1.86,3.01c0.14,0.14,2.44,1,6.73,2.43
		c14.18,4.87,21.34,14.75,21.34,29.79c0,5.01-0.86,10.02-2.72,14.89c-0.57,1.72-0.86,3.87-0.86,6.44c0,2.86,0.57,7.16,1.86,12.89
		c1.15,5.73,1.72,10.03,1.72,12.89c0,5.44-3.72,10.31-11.03,14.32c-1.15,0.57-3.44,1.01-7.16,1.29l-23.77-14.75
		c-0.14-0.86-0.14-1.86-0.14-2.86v-24.2c-0.28-3.15-0.28-5.59,0-7.73c0.29-2.58,1.15-4.87,2.44-6.73c0.57-1,0.86-2.86,0.86-5.44
		c0-2.72-0.29-6.3-0.86-10.74c-0.72-1.01-1-2.01-1-2.72c0-0.86,0.28-1.72,1-2.44l0.57-1c6.73-18.33,10.45-29.78,11.32-34.23
		c-0.86-1.29-5.87-4.15-15.32-8.88c-9.31-4.73-14.03-7.45-14.03-8.31c-1.29-0.14-4.3-1.86-9.31-5.01c-5.01-3.15-7.88-4.73-8.45-4.44
		L178,154.8c-6.87,5.44-11.17,8.02-12.75,8.02c-2.86,0-10.03-4.58-21.19-13.89c-6.87-5.87-12.6-8.74-17.19-8.74
		c-2.72,0-5.58,0.86-8.45,2.44c-0.43,0.72-4.44,3.44-12.17,8.45c-7.59,4.87-12.03,8.59-13.32,11.17c-3.44,0.14-6.87-1.43-10.02-4.87
		c-4.15-4.58-6.73-7.16-8.02-7.73c-5.3-2.86-10.17-4.29-14.61-4.29c-2.15,0-4.3,0.86-6.44,2.43c-2.58,2.29-4.01,3.58-4.58,3.72
		c-3.3,1.29-7.59,4.3-12.6,9.16c-5.73,5.3-8.45,9.31-8.31,12.03c8.59,7.45,13.17,13.75,13.75,18.62
		c1.43,11.03,2.15,19.91,1.86,26.64c-0.57,1.43-0.86,3.01-0.86,4.87c0,1.58,0.14,3.44,0.58,5.16c1.29,2.86,1.86,5.73,1.86,8.59
		c0,1-0.28,2.72-0.57,4.87c-0.43,2.29-0.72,4.01-0.72,5.01c0,1.57,0.14,3.29,0.29,5.16c0.43,3.87,0.43,6.59,0,8.3
		c1.43,4.3,2.15,9.45,2.58,15.9c-2.72-1.57-4.58-2.44-5.59-2.44c-2.15,0-5.44,3.44-9.74,10.17C24.2,289.84,19.05,294,16.61,296
		L3.86,307.32C1.29,309.6,0,314.76,0,322.64c0,2.29,0.29,4.58,0.86,6.73c4.01,3.87,11.02,8.16,21.19,12.6
		c18.47,8.16,29.78,12.17,33.94,12.17c0.57,0,1,0,1.29-0.28l-2.58-3.01c-2-2.44-2.86-4.15-2.86-4.87c0-2.29,2.29-5.87,7.16-10.74
		c4.73-4.87,8.74-8.16,11.88-9.74l194.76,0.72c0.28,1.29,0.28,2.72,0.28,4.15c0,3.15-0.72,7.73-1.86,13.89
		c-1.29,6.02-1.86,10.6-1.86,13.75c0,5.87,0.43,9.59,1.14,11.03c1.72,2.58,5.73,4.01,12.32,4.01l1.57-3.44
		c0.72-2.44,1.86-3.72,3.01-3.72h9.45c4.29,0,10.03,2.01,17.04,5.73c7.02,3.72,12.03,5.73,15.18,6.02c0.72-0.86,1.15-2.58,1.15-5.3
		c0-0.14,0.29-0.43,0.86-0.86c0.43-0.43,0.71-0.86,0.71-1.29c0-1-0.86-2.01-2.43-3.01c-4.73-3.29-7.02-5.44-7.02-6.73
		c0-2.43-0.57-6.01-1.72-10.74c-1.15-4.73-1.72-8.3-1.72-10.74c0-8.02-0.14-11.88-0.29-11.88c0-0.28,0-0.43,0.14-0.72h12.03
		c2.58,0,6.73,0.72,12.46,2.29c5.87,1.58,10.17,2.29,13.03,2.29c1.72,0,2.72-0.28,2.86-0.86c0-0.14,0-0.29-0.14-0.57h0.29
		l20.91-14.04c8.74-6.01,14.18-13.89,16.47-23.92c1.72-7.3,1.72-20.05,0-37.95C388.08,249.75,386.79,246.88,385.51,245.02"/>
	<path class="st0" d="M393.24,168.55c-0.28,0-0.57,0.14-1,0.57c0.86,0.43,1.29,0.86,1.29,1.29
		C393.53,169.27,393.38,168.69,393.24,168.55"/>
	<path class="st0" d="M408.4,81.58c-0.35,1.1-0.82,2.03-1.46,3.07c-0.52,1.21-2.49,6.23-6.09,15.17
		c-5.88,7.92-13.44,15.52-22.62,22.38c-11.6,8.88-21.05,12.62-28.23,11.26c-2.81-0.53-4.03-1.79-3.71-3.47l5.7-5.48
		c1.25-1.22,4.79-6.81,10.45-16.67c1.41-2.06,3.37-5.48,5.72-10.14l5.27-12.41l-0.62,0.17l0.05-0.28c0.49-1.8,1.58-4.51,3.38-7.81
		c0.54-1.35,0.73-3.07,0.28-5.34L408.4,81.58z"/>
	<path class="st0" d="M250.05,81.58c0.35,1.1,0.82,2.03,1.46,3.07c0.52,1.21,2.49,6.23,6.09,15.17
		c5.88,7.92,13.44,15.52,22.62,22.38c11.6,8.88,21.05,12.62,28.23,11.26c2.81-0.53,4.03-1.79,3.71-3.47l-5.7-5.48
		c-1.25-1.22-4.8-6.81-10.45-16.67c-1.41-2.06-3.37-5.48-5.72-10.14l-5.27-12.41l0.62,0.17l-0.05-0.28
		c-0.49-1.8-1.58-4.51-3.38-7.81c-0.55-1.35-0.73-3.07-0.28-5.34L250.05,81.58z"/>
	<path class="st0" d="M342.17,25.47c0.55,1.31,0.85,2.5,1.09,3.91c0.48,1.51,2.65,7.67,6.42,18.68c0.77,11.27-0.35,23.17-3.61,35.23
		c-3.96,15.45-10,24.54-17.99,27.21c-3.13,1.05-5.32,0.47-6.37-1.4l1.05-8.72c0.21-1.93-0.91-9.55-3.45-22.65
		c-0.31-2.87-1.19-7.41-2.71-13.41l-4.97-15.44l-0.45,0.52l-0.18-0.31c-0.99-2.09-2.13-5.42-3.07-9.76
		c-0.57-1.67-1.78-3.49-4.04-5.53L342.17,25.47z"/>
</g>
</svg>
